<svg width="21" height="21" viewBox="0 0 21 21" fill="none" xmlns="http://www.w3.org/2000/svg">
<g clip-path="url(#clip0_66_182)">
<path d="M0 10.5C0 4.69185 4.72538 0.0151225 10.4623 3.62798e-05C16.2444 -0.0150499 20.9849 4.67676 21 10.4699C21.0151 16.2931 16.2746 20.9849 10.5226 21C4.77067 21.0151 0.0150971 16.3384 0 10.5ZM18.8864 10.8772C18.8864 5.88366 15.1423 2.11211 10.4925 2.11211C5.87275 2.11211 2.11359 5.86857 2.11359 10.5C2.11359 12.8082 2.94393 14.7996 4.57441 16.4289C6.20489 18.0582 8.1977 18.888 10.4925 18.888C12.8023 18.888 14.8102 18.0431 16.4407 16.3987C18.0712 14.7694 18.8562 12.7931 18.8864 10.8772Z" fill="#FFC905"/>
<path d="M15.8217 6.75863C15.3235 7.13578 14.8253 7.51294 14.312 7.875C14.2667 7.81466 14.2214 7.75431 14.1912 7.70906C13.5118 6.81897 12.6513 6.21552 11.5492 6.0194C10.266 5.79311 9.13369 6.10992 8.13729 6.92457C7.36734 7.55819 6.88423 8.37285 6.62758 9.33837C6.47661 9.88147 6.46152 10.4397 6.50681 11.0129C6.59739 11.903 6.92952 12.7026 7.48811 13.4116C8.15239 14.2414 9.01292 14.7996 10.0848 14.9806C10.9 15.1164 11.6851 15.0259 12.4399 14.694C12.9532 14.4677 13.4062 14.1509 13.7987 13.7435C13.9648 13.5776 14.1006 13.3815 14.2516 13.2004C14.2667 13.1703 14.2818 13.1552 14.312 13.125C14.8102 13.5022 15.3084 13.8642 15.8217 14.2414C15.7613 14.3168 15.716 14.3772 15.6707 14.4526C15.1272 15.1164 14.4931 15.6746 13.7232 16.0819C13.0136 16.4591 12.2588 16.7004 11.4586 16.7759C11.1114 16.806 10.7642 16.8211 10.4169 16.806C9.48093 16.7457 8.5902 16.4892 7.77496 16.0216C7.38244 15.7953 7.00501 15.5388 6.67287 15.2371C6.15957 14.7845 5.73686 14.2565 5.40472 13.6681C5.0122 13.0043 4.77065 12.3254 4.64987 11.6013C4.60458 11.375 4.58948 11.1336 4.55929 10.8922C4.54419 10.7263 4.54419 10.5603 4.54419 10.4095C4.55929 9.54957 4.72535 8.73492 5.07259 7.95044C5.34433 7.34699 5.69157 6.80388 6.12938 6.30604C6.64268 5.71768 7.26166 5.25 7.95612 4.88794C8.43923 4.63147 8.95253 4.45044 9.49602 4.32975C9.81306 4.2694 10.115 4.22414 10.432 4.20906C10.583 4.20906 10.734 4.19397 10.885 4.19397C11.8361 4.20906 12.757 4.42026 13.6024 4.85776C14.1308 5.12931 14.6139 5.4763 15.0517 5.88363C15.3235 6.14009 15.5499 6.39656 15.7764 6.69828C15.7915 6.71337 15.7915 6.72845 15.8217 6.75863Z" fill="#FFC905"/>
</g>
<defs>
<clipPath id="clip0_66_182">
<rect width="21" height="21" fill="white"/>
</clipPath>
</defs>
</svg>
