<svg width="113" height="105" viewBox="0 0 113 105" fill="none" xmlns="http://www.w3.org/2000/svg">
<g clip-path="url(#clip0_66_151)">
<path d="M84.0263 99.1616L85.7606 97.4474V91.7603H78.3593V99.1616H84.0263ZM87.1522 100.745H78.3593V105H76.7661V90.1671H87.3438V90.3688C87.3236 92.6275 87.3236 94.8963 87.3337 97.155C87.3337 98.3953 87.3438 99.6457 87.3438 100.543V100.745H87.1522ZM102.167 100.543V90.1671H103.76V97.4474L105.474 99.1616H111.161V90.1671H112.754V105H111.161V100.745H102.177V100.543H102.167ZM91.0646 96.2576V99.1616H98.4659V96.2576H91.0646ZM89.4714 100.543V94.6845L92.0124 94.6745C94.251 94.6644 96.4996 94.6543 98.4659 94.6543V93.4745L96.7215 91.7603H89.4714V90.1671H100.049V100.745H89.4714V100.543Z" fill="#E3E4E5"/>
<path d="M45.3356 91.7603H39.6687V99.1616H47.07V93.4745L45.3356 91.7603ZM66.8035 91.7603L65.0691 93.4947V100.745H63.4759V90.1671H74.0536V91.7603H66.8035ZM26.9836 96.2576V99.1616H32.6505L34.3849 97.4273V96.2576H26.9836ZM25.3904 100.543V94.6846L27.9314 94.6745C30.17 94.6644 32.4085 94.6543 34.3748 94.6543V91.7603H25.3904V90.1671H35.968V100.745H25.3904V100.543ZM10.5776 99.3532V100.745H0V85.922H1.5932V97.4273L3.32757 99.1616H10.5776V99.3532ZM21.6796 94.6644V91.7603H16.0127L14.2783 93.4947V94.6644H21.6796ZM23.2728 90.3688V96.2273L20.8024 96.2374C18.5436 96.2475 16.2748 96.2576 14.2884 96.2576V99.1616H23.2728V100.755H12.6952V90.1671H23.2728V90.3688ZM59.7652 94.6644V91.7603H52.3639V94.6644H59.7652ZM61.3584 90.3688V96.2273L58.8778 96.2374C56.6191 96.2475 54.3503 96.2576 52.3639 96.2576V97.4474L54.0982 99.1616H61.3483V100.755H50.7808V90.1671H61.3584V90.3688ZM48.4615 100.745H38.0856V90.1671H47.07V85.9119H48.6632V100.745H48.4615Z" fill="#F6D658"/>
<path d="M75.5057 67.9732L53.4429 34.879L75.4956 1.76465L92.0729 26.6105L75.5057 51.4362L81.0315 59.7047L75.5057 67.9732Z" fill="#F6D658"/>
<path d="M75.5158 67.9833H42.4014L20.3386 34.879H31.37L47.9776 59.7148H59.009L42.4115 34.879H53.4429L75.5158 67.9833Z" fill="#EAC344"/>
<path d="M31.37 34.8791L36.8857 26.6005H25.8442L20.3386 34.8791H31.37Z" fill="#E2B742"/>
<path d="M36.8858 26.6005L31.3701 34.8791L47.9777 59.7148H59.0091L36.8858 26.6005Z" fill="#F6D658"/>
<path d="M47.9775 59.7148H59.0089L53.4932 51.4362L47.9775 59.7148Z" fill="#E2B742"/>
<path d="M42.4116 34.879H53.443L75.4957 1.77473L64.4643 1.76465L42.4116 34.879Z" fill="#E2B742"/>
<path d="M25.8442 26.6004H36.8857L42.4115 34.879L64.4642 1.76465H42.4014L25.8442 26.6004Z" fill="#141611"/>
<path d="M75.5056 51.4362L92.0729 26.6105L97.5785 34.8689L81.0314 59.7047L75.5056 51.4362Z" fill="#141611"/>
<path fill-rule="evenodd" clip-rule="evenodd" d="M71.5833 45.5373L62.9014 32.5093L73.9328 15.9521L82.5845 28.9398L71.5833 45.5373Z" fill="#141611"/>
<path fill-rule="evenodd" clip-rule="evenodd" d="M71.5833 45.5374L62.9014 32.5094L77.5628 18.1404L86.2246 31.128L71.5833 45.5374Z" fill="#141611"/>
<path fill-rule="evenodd" clip-rule="evenodd" d="M74.0034 18.8663L62.9014 32.5094L75.1327 20.52L74.0034 18.8663Z" fill="#F6D658"/>
</g>
<defs>
<clipPath id="clip0_66_151">
<rect width="112.744" height="105" fill="white"/>
</clipPath>
</defs>
</svg>
