<svg width="25" height="25" viewBox="0 0 25 25" fill="none" xmlns="http://www.w3.org/2000/svg">
<g clip-path="url(#clip0_15_1709)">
<path d="M23.6786 3.08848C22.6927 3.78388 21.6012 4.31576 20.446 4.66362C19.8259 3.9507 19.0019 3.4454 18.0853 3.21606C17.1688 2.98672 16.2039 3.04441 15.3212 3.38132C14.4385 3.71824 13.6805 4.31812 13.1499 5.09983C12.6192 5.88155 12.3414 6.80739 12.3541 7.75212V8.78162C10.5449 8.82854 8.75212 8.42728 7.13553 7.6136C5.51894 6.79991 4.12867 5.59906 3.08855 4.11798C3.08855 4.11798 -1.02946 13.3835 8.23606 17.5015C6.11582 18.9407 3.59007 19.6624 1.02954 19.5605C10.2951 24.708 21.6196 19.5605 21.6196 7.72124C21.6186 7.43447 21.5911 7.14842 21.5372 6.86675C22.5879 5.83055 23.3294 4.52228 23.6786 3.08848Z" stroke="#E4E5E6" stroke-width="2" stroke-linecap="round" stroke-linejoin="round"/>
</g>
<defs>
<clipPath id="clip0_15_1709">
<rect width="24.7081" height="24.7081" fill="white"/>
</clipPath>
</defs>
</svg>
