<?xml version="1.0" standalone="no"?>
<!DOCTYPE svg PUBLIC "-//W3C//DTD SVG 20010904//EN"
 "http://www.w3.org/TR/2001/REC-SVG-20010904/DTD/svg10.dtd">
<svg version="1.0" xmlns="http://www.w3.org/2000/svg"
 width="390.000000pt" height="390.000000pt" viewBox="0 0 390.000000 390.000000"
 preserveAspectRatio="xMidYMid meet">
<metadata>
Created by potrace 1.11, written by Peter Selinger 2001-2013
</metadata>
<g transform="translate(0.000000,390.000000) scale(0.100000,-0.100000)"
fill="#000000" stroke="none">
<path d="M2274 3868 c218 -171 315 -287 431 -518 201 -400 265 -765 210 -1195
-12 -95 -15 -120 -20 -145 -2 -14 -7 -42 -10 -62 -16 -114 -18 -128 -40 -243
-10 -49 -19 -99 -20 -111 -2 -11 -8 -45 -14 -75 -6 -30 -13 -67 -16 -84 -2
-16 -9 -55 -14 -85 -6 -30 -13 -74 -16 -97 -3 -23 -8 -57 -10 -75 -7 -45 -7
-216 -1 -257 35 -229 189 -373 400 -372 85 1 109 5 184 33 153 57 278 159 376
306 179 269 216 624 107 1034 -34 131 -138 410 -158 428 -3 3 -3 -4 1 -15 13
-33 54 -236 62 -300 11 -100 11 -234 -2 -324 -20 -145 -98 -345 -182 -471
l-31 -44 55 -78 54 -78 -32 -1 c-18 0 -40 -2 -48 -3 -8 -2 -59 -6 -112 -10
-53 -4 -105 -8 -115 -10 -10 -2 -65 -7 -123 -10 -58 -4 -118 -9 -135 -11 -54
-7 -195 -15 -195 -11 0 8 53 121 200 431 29 61 68 143 86 184 l35 74 50 -72
51 -72 17 23 c97 127 172 373 173 567 2 146 -9 233 -49 385 -46 179 -143 400
-252 575 -163 263 -402 499 -686 677 -99 63 -251 142 -211 112z"/>
<path d="M1715 3752 c-414 -36 -795 -323 -1163 -874 -101 -152 -105 -161 -21
-58 166 206 362 375 536 464 51 25 183 72 230 81 13 2 50 9 84 15 33 6 106 12
162 14 l101 3 18 39 c9 21 25 58 35 82 9 23 20 42 24 42 4 0 15 -13 26 -28 10
-16 111 -150 226 -299 114 -150 207 -273 207 -276 0 -2 -6 -4 -12 -4 -19 0
-129 -13 -158 -17 -25 -5 -47 -7 -193 -26 -45 -6 -98 -13 -117 -15 -19 -3 -55
-7 -79 -10 -48 -5 -108 -13 -163 -21 l-37 -6 34 81 c38 91 43 84 -57 83 -118
-1 -307 -52 -438 -117 -158 -79 -353 -254 -487 -435 -220 -299 -374 -632 -428
-930 -31 -165 -45 -497 -25 -545 7 -16 9 -11 9 21 2 110 64 331 127 455 74
146 245 385 361 504 268 277 475 391 1178 655 165 62 341 132 392 155 214 100
336 214 377 352 18 64 15 180 -8 241 -60 164 -233 299 -448 353 -70 18 -216
28 -293 21z"/>
<path d="M557 1552 c-191 -48 -313 -255 -302 -512 14 -330 237 -632 601 -813
155 -78 382 -147 564 -172 19 -3 42 -7 50 -10 8 -2 41 -7 73 -10 32 -4 68 -8
80 -11 120 -23 580 -23 747 0 14 2 52 7 85 10 33 4 67 9 75 11 8 2 35 7 60 10
63 9 200 43 174 44 -12 1 -46 -4 -75 -9 -30 -6 -83 -13 -119 -16 -36 -3 -68
-7 -71 -9 -10 -7 -278 -19 -399 -19 -204 0 -335 13 -516 49 -216 44 -417 124
-544 217 -85 62 -229 216 -285 302 l-50 78 -45 -6 c-71 -10 -114 -17 -127 -21
-7 -2 -13 -3 -13 -1 0 2 45 127 101 277 125 341 139 377 153 412 l12 29 119
-144 c65 -79 122 -145 125 -148 3 -3 23 -27 45 -55 21 -27 42 -52 45 -55 23
-22 151 -182 148 -185 -2 -3 -39 -10 -81 -17 -45 -7 -77 -16 -77 -23 0 -24 99
-152 167 -216 178 -168 401 -276 648 -315 17 -3 41 -7 55 -10 134 -23 543 -23
780 1 19 2 67 6 105 9 211 19 283 30 400 61 108 29 308 125 385 185 18 15 8
12 -40 -9 -94 -42 -220 -79 -319 -95 -83 -14 -386 -15 -421 -2 -8 3 -37 7 -65
10 -27 3 -75 10 -105 16 -30 6 -66 13 -80 16 -14 3 -59 14 -100 26 -323 89
-547 219 -935 542 -147 122 -238 199 -245 207 -18 20 -247 204 -302 242 -92
66 -221 124 -301 137 -77 12 -108 11 -180 -8z"/>
</g>
</svg>
